# xmcd
# 
# Track frame offsets:
#     150
#     9785
#     26544
#     45009
#     59476
#     76836
#     102836
#     119618
#     159646
# 
# Disc length: 2349
# 
# Revision: 0
# Processed by: cddbd v1.5.2PL0 Copyright (c) Steve Scherf et al.
# Submitted via: fre:ac v1.0.17
# 
DISCID=5d092b09
DTITLE=Nico Smoljan and Shakedancers - Nico Smoljan and Shakedancers
DYEAR=2015
DGENRE=Blues
TTITLE0=Booguiebuck
TTITLE1=Mannish Boy
TTITLE2=Little Blue Girl
TTITLE3=You're The One
TTITLE4=That's All I Need
TTITLE5=Once, 3AM
TTITLE6=I Been Dealing With The Devil
TTITLE7=Honey Bee
TTITLE8=I Got To Find My Baby
EXTD=
EXTT0=
EXTT1=
EXTT2=
EXTT3=
EXTT4=
EXTT5=
EXTT6=
EXTT7=
EXTT8=
PLAYORDER=
